<?xml version="1.0" encoding="utf-8"?>
<!-- Generator: Adobe Illustrator 24.0.1, SVG Export Plug-In . SVG Version: 6.00 Build 0)  -->
<svg version="1.1" id="Capa_1" xmlns="http://www.w3.org/2000/svg" xmlns:xlink="http://www.w3.org/1999/xlink" x="0px" y="0px"
	 viewBox="0 0 1198 113" style="enable-background:new 0 0 1198 113;" xml:space="preserve">
<style type="text/css">
	.st0{fill:#F0DB4F;}
	.st1{fill:#F38020;}
	.st2{fill:#806EE3;}
	.st3{fill:#E14E1D;}
	.st4{fill:#00DC82;}
	.st5{fill:#953CAD;}
	.st6{fill:#007ACC;}
	.st7{fill:#00B4E0;}
	.st8{fill:#654FF0;}
</style>
<g>
	<path class="st0" d="M31,1h52c16.6,0,30,13.4,30,30v52c0,16.6-13.4,30-30,30H31C14.4,113,1,99.6,1,83V31C1,14.4,14.4,1,31,1z"/>
</g>
<g>
	<path class="st1" d="M437,0h52c16.6,0,30,13.4,30,30v51c0,16.6-13.4,30-30,30h-52c-16.6,0-30-13.4-30-30V30C407,13.4,420.4,0,437,0
		z"/>
</g>
<g>
	<path class="st2" d="M844-0.5h52c16.6,0,30,13.4,30,30v52c0,16.6-14.4,30-31,30h-52c-16.6,0-29-13.4-29-30v-52
		C814,12.9,827.4-0.5,844-0.5z"/>
</g>
<g>
	<path class="st3" d="M168,1h51c16.6,0,30,13.4,30,30v52c0,16.6-13.4,30-30,30h-51c-16.6,0-30-13.4-30-30V31C138,14.4,151.4,1,168,1
		z"/>
</g>
<g>
	<path class="st4" d="M574,0h51c16.6,0,30,13.4,30,30v51c0,16.6-13.4,30-30,30h-51c-16.6,0-30-13.4-30-30V30C544,13.4,557.4,0,574,0
		z"/>
</g>
<g>
	<path class="st5" d="M981-0.5h51c16.6,0,30,13.4,30,30v52c0,16.6-13.4,30-30,30h-51c-16.6,0-30-13.4-30-30v-52
		C951,12.9,964.4-0.5,981-0.5z"/>
</g>
<g>
	<path class="st6" d="M302,1h52c16.6,0,30,13.4,30,30v52c0,16.6-13.4,30-30,30h-52c-16.6,0-30-13.4-30-30V31C272,14.4,285.4,1,302,1
		z"/>
</g>
<g>
	<path class="st7" d="M709,0h52c16.6,0,30,13.4,30,30v51c0,16.6-13.4,30-30,30h-52c-16.6,0-30-13.4-30-30V30C679,13.4,692.4,0,709,0
		z"/>
</g>
<g>
	<path class="st8" d="M1116-0.5h52c16.6,0,30,13.4,30,30v52c0,16.6-13.4,30-30,30h-52c-16.6,0-30-13.4-30-30v-52
		C1086,12.9,1099.4-0.5,1116-0.5z"/>
</g>
</svg>
